<?xml version="1.0" standalone="no"?>
<!DOCTYPE svg PUBLIC "-//W3C//DTD SVG 20010904//EN"
 "http://www.w3.org/TR/2001/REC-SVG-20010904/DTD/svg10.dtd">
<svg version="1.0" xmlns="http://www.w3.org/2000/svg"
 width="200.000000pt" height="200.000000pt" viewBox="0 0 200.000000 200.000000"
 preserveAspectRatio="xMidYMid meet">
<metadata>
Created by potrace 1.14, written by Peter Selinger 2001-2017
</metadata>
<g transform="translate(0.000000,200.000000) scale(0.100000,-0.100000)"
fill="#000000" stroke="none">
<path d="M745 1929 c-55 -10 -116 -21 -135 -24 -85 -14 -93 -15 -280 -60 -43
-10 -165 -57 -198 -75 -21 -12 -44 -31 -51 -43 -26 -40 -12 -175 44 -437 42
-197 205 -600 242 -600 8 0 11 5 8 10 -4 6 24 -20 62 -57 59 -58 71 -76 82
-123 27 -111 102 -363 117 -392 8 -16 19 -26 24 -23 5 3 29 8 52 10 24 2 46 4
51 4 4 1 7 7 7 14 0 8 11 19 25 25 20 9 26 8 34 -6 15 -26 137 -19 168 10 13
12 23 26 23 32 0 6 -4 6 -8 -2 -6 -8 -29 33 -66 115 -31 71 -58 132 -59 137
-2 11 56 16 71 7 5 -3 35 -70 65 -149 30 -79 57 -145 59 -147 1 -2 19 -6 38
-9 30 -4 38 0 67 32 18 20 33 43 33 50 0 13 -55 137 -86 195 -18 33 -14 35 71
39 l60 3 34 -85 c19 -47 51 -132 71 -190 l38 -105 60 -3 c56 -3 62 -1 77 22
11 17 30 28 53 31 100 17 116 41 79 118 -14 29 -37 77 -50 107 -14 30 -34 75
-45 100 -12 27 -16 46 -10 49 16 5 22 -5 126 -208 54 -107 104 -197 112 -199
8 -3 10 0 5 8 -6 9 5 11 44 7 83 -8 96 23 44 106 -13 20 -34 62 -48 92 -13 31
-33 68 -43 83 -46 64 -63 104 -57 133 4 16 11 27 16 23 5 -3 9 0 9 5 0 6 -4
11 -9 11 -9 0 -7 112 5 335 8 137 10 531 4 648 -3 53 -9 82 -20 91 -36 32
-215 146 -276 177 -36 18 -76 46 -89 60 -41 50 -106 62 -340 64 -164 1 -232
-2 -310 -16z m341 -1721 c8 -24 11 -38 6 -33 -8 9 -14 23 -37 90 -6 18 -5 18
5 3 6 -10 17 -37 26 -60z"/>
</g>
</svg>
