<svg width="108" height="42" viewBox="0 0 108 42" fill="none" xmlns="http://www.w3.org/2000/svg">
<path d="M18.202 20.029C16.7713 20.203 15.5243 20.29 14.461 20.29C13.417 20.29 12.5953 20.0193 11.996 19.478C11.416 18.9173 11.126 17.9603 11.126 16.607V9.879H9.73395V6.283H11.358L11.619 3.615H15.998V6.283H18.579L18.376 9.879H15.969V15.65C15.969 16.056 16.1623 16.259 16.549 16.259C16.5876 16.259 17.187 16.23 18.347 16.172L18.202 20.029ZM18.8221 10.227C18.8221 8.81567 19.2474 7.72333 20.0981 6.95C20.9681 6.15733 22.1571 5.761 23.6651 5.761C25.1731 5.761 26.7004 5.95433 28.2471 6.341L27.7541 10.372C25.7821 9.92733 24.4577 9.705 23.7811 9.705C23.3751 9.705 23.1721 9.86933 23.1721 10.198C23.1721 10.4107 23.3944 10.604 23.8391 10.778C25.3857 11.3387 26.5457 11.9767 27.3191 12.692C28.1117 13.4073 28.5081 14.4803 28.5081 15.911C28.5081 17.3417 28.1407 18.434 27.4061 19.188C26.6714 19.9227 25.5404 20.29 24.0131 20.29C22.5051 20.29 20.9971 20.0967 19.4891 19.71L19.8081 15.795C21.7414 16.317 22.9884 16.578 23.5491 16.578C24.1291 16.578 24.4191 16.4427 24.4191 16.172C24.4191 15.9013 24.2064 15.6887 23.7811 15.534C22.0604 14.8767 20.8037 14.1807 20.0111 13.446C19.2184 12.692 18.8221 11.619 18.8221 10.227ZM41.4652 20H36.1002L34.3312 14.664H34.2152V20H29.4882V1.411H34.2732V11.648H34.3892L36.5062 6.109H41.5812L38.6522 13.04L41.4652 20ZM41.5633 10.227C41.5633 8.81567 41.9886 7.72333 42.8393 6.95C43.7093 6.15733 44.8983 5.761 46.4063 5.761C47.9143 5.761 49.4416 5.95433 50.9883 6.341L50.4953 10.372C48.5233 9.92733 47.1989 9.705 46.5223 9.705C46.1163 9.705 45.9133 9.86933 45.9133 10.198C45.9133 10.4107 46.1356 10.604 46.5803 10.778C48.1269 11.3387 49.2869 11.9767 50.0603 12.692C50.8529 13.4073 51.2493 14.4803 51.2493 15.911C51.2493 17.3417 50.8819 18.434 50.1473 19.188C49.4126 19.9227 48.2816 20.29 46.7543 20.29C45.2463 20.29 43.7383 20.0967 42.2303 19.71L42.5493 15.795C44.4826 16.317 45.7296 16.578 46.2903 16.578C46.8703 16.578 47.1603 16.4427 47.1603 16.172C47.1603 15.9013 46.9476 15.6887 46.5223 15.534C44.8016 14.8767 43.5449 14.1807 42.7523 13.446C41.9596 12.692 41.5633 11.619 41.5633 10.227ZM58.0294 9.908C57.5267 9.908 57.198 10.082 57.0434 10.43C56.8887 10.7587 56.8114 11.271 56.8114 11.967H59.3344V11.271C59.3344 10.3623 58.8994 9.908 58.0294 9.908ZM58.1454 5.761C60.1367 5.761 61.5577 6.24433 62.4084 7.211C63.2784 8.15833 63.7134 9.52133 63.7134 11.3C63.7134 11.532 63.6457 12.576 63.5104 14.432H56.8984C56.8984 15.882 57.5654 16.607 58.8994 16.607C59.5374 16.607 60.7844 16.3847 62.6404 15.94L63.0464 19.536C61.4224 20.0387 59.7984 20.29 58.1744 20.29C56.183 20.29 54.6557 19.6423 53.5924 18.347C52.529 17.0323 51.9974 15.2537 51.9974 13.011C51.9974 8.17767 54.0467 5.761 58.1454 5.761ZM69.8725 12.199V20H65.0585V6.109H69.2925L69.5825 6.95H69.6985C70.1431 6.44733 70.5878 6.12833 71.0325 5.993C71.4965 5.83833 72.2408 5.761 73.2655 5.761L73.0625 10.401H71.7285C70.9745 10.401 70.4718 10.517 70.2205 10.749C69.9885 10.981 69.8725 11.4643 69.8725 12.199ZM86.0683 6.109L83.1103 20H76.2663L73.2793 6.109H78.3833L79.6303 15.012H80.0073L81.3413 6.109H86.0683ZM92.7501 9.908C92.2474 9.908 91.9187 10.082 91.7641 10.43C91.6094 10.7587 91.5321 11.271 91.5321 11.967H94.0551V11.271C94.0551 10.3623 93.6201 9.908 92.7501 9.908ZM92.8661 5.761C94.8574 5.761 96.2784 6.24433 97.1291 7.211C97.9991 8.15833 98.4341 9.52133 98.4341 11.3C98.4341 11.532 98.3664 12.576 98.2311 14.432H91.6191C91.6191 15.882 92.2861 16.607 93.6201 16.607C94.2581 16.607 95.5051 16.3847 97.3611 15.94L97.7671 19.536C96.1431 20.0387 94.5191 20.29 92.8951 20.29C90.9037 20.29 89.3764 19.6423 88.3131 18.347C87.2497 17.0323 86.7181 15.2537 86.7181 13.011C86.7181 8.17767 88.7674 5.761 92.8661 5.761ZM104.593 12.199V20H99.7792V6.109H104.013L104.303 6.95H104.419C104.864 6.44733 105.309 6.12833 105.753 5.993C106.217 5.83833 106.962 5.761 107.986 5.761L107.783 10.401H106.449C105.695 10.401 105.193 10.517 104.941 10.749C104.709 10.981 104.593 11.4643 104.593 12.199Z" fill="white"/>
<path d="M24.3867 34.6152H21.1875L20.4609 37H19.7637L22.4824 28.4688H23.1035L25.8223 37H25.125L24.3867 34.6152ZM21.3809 33.9883H24.1934L22.7871 29.4121L21.3809 33.9883ZM30.6738 28.4688L33.2578 35.9746L35.8535 28.4688H36.7383V37H36.0703V33.3027L36.1289 29.582L33.5156 37H33L30.3984 29.6172L30.457 33.2793V37H29.7891V28.4688H30.6738ZM39.3516 37H38.6953V30.6602H39.3516V37ZM38.6016 28.832C38.6016 28.6992 38.6387 28.5859 38.7129 28.4922C38.7871 28.3984 38.8926 28.3516 39.0293 28.3516C39.166 28.3516 39.2715 28.3984 39.3457 28.4922C39.4238 28.5859 39.4629 28.6992 39.4629 28.832C39.4629 28.9648 39.4238 29.0781 39.3457 29.1719C39.2715 29.2617 39.166 29.3066 39.0293 29.3066C38.8926 29.3066 38.7871 29.2617 38.7129 29.1719C38.6387 29.0781 38.6016 28.9648 38.6016 28.832ZM41.7773 30.6602L41.7949 31.668C41.9824 31.3242 42.2207 31.0508 42.5098 30.8477C42.8027 30.6445 43.1348 30.543 43.5059 30.543C44.6113 30.543 45.1777 31.2793 45.2051 32.752V37H44.5605V32.8223C44.5566 32.2559 44.457 31.8379 44.2617 31.5684C44.0664 31.2988 43.7598 31.1641 43.3418 31.1641C43.002 31.1641 42.6953 31.293 42.4219 31.5508C42.1523 31.8047 41.9473 32.1543 41.8066 32.5996V37H41.1562V30.6602H41.7773ZM49.0254 37.1172C48.2793 37.1172 47.6953 36.873 47.2734 36.3848C46.8516 35.8965 46.6367 35.2012 46.6289 34.2988V33.5254C46.6289 32.5957 46.832 31.8672 47.2383 31.3398C47.6445 30.8086 48.2031 30.543 48.9141 30.543C49.6016 30.543 50.125 30.7676 50.4844 31.2168C50.8477 31.666 51.0332 32.3535 51.041 33.2793V33.8887H47.2734V34.2461C47.2734 34.9727 47.4277 35.5332 47.7363 35.9277C48.0488 36.3223 48.4883 36.5195 49.0547 36.5195C49.6797 36.5195 50.1855 36.291 50.5723 35.834L50.9121 36.2676C50.498 36.834 49.8691 37.1172 49.0254 37.1172ZM48.9141 31.1523C48.4023 31.1523 48.0078 31.334 47.7305 31.6973C47.457 32.0566 47.3066 32.584 47.2793 33.2793H50.3906V33.1094C50.3594 31.8047 49.8672 31.1523 48.9141 31.1523ZM54.4336 36.5137C54.8867 36.5137 55.2344 36.3867 55.4766 36.1328C55.7188 35.8789 55.8496 35.5137 55.8691 35.0371H56.4961C56.4648 35.6855 56.2578 36.1953 55.875 36.5664C55.4922 36.9336 55.0117 37.1172 54.4336 37.1172C53.6797 37.1172 53.1094 36.877 52.7227 36.3965C52.3398 35.9121 52.1445 35.1953 52.1367 34.2461V33.4727C52.1367 32.5039 52.3281 31.7734 52.7109 31.2812C53.0977 30.7891 53.6699 30.543 54.4277 30.543C55.0566 30.543 55.5527 30.7422 55.916 31.1406C56.2793 31.5352 56.4727 32.0879 56.4961 32.7988H55.8691C55.8496 32.2754 55.7168 31.8711 55.4707 31.5859C55.2246 31.2969 54.877 31.1523 54.4277 31.1523C53.8652 31.1523 53.4512 31.3418 53.1855 31.7207C52.9238 32.0996 52.793 32.6816 52.793 33.4668V34.1875C52.793 35 52.9258 35.5918 53.1914 35.9629C53.457 36.3301 53.8711 36.5137 54.4336 36.5137ZM60.3633 31.2695C60.207 31.2422 60.0703 31.2285 59.9531 31.2285C59.5938 31.2285 59.291 31.3516 59.0449 31.5977C58.8027 31.8438 58.6309 32.1855 58.5293 32.623V37H57.8789V30.6602H58.5176L58.5293 31.6094C58.8379 30.8984 59.3223 30.543 59.9824 30.543C60.1543 30.543 60.2852 30.5684 60.375 30.6191L60.3633 31.2695ZM64.6289 37C64.5703 36.7969 64.5312 36.5039 64.5117 36.1211C64.3164 36.4375 64.0645 36.6836 63.7559 36.8594C63.4512 37.0312 63.1191 37.1172 62.7598 37.1172C62.2129 37.1172 61.7871 36.9629 61.4824 36.6543C61.1777 36.3457 61.0254 35.9062 61.0254 35.3359C61.0254 34.7148 61.2363 34.2227 61.6582 33.8594C62.084 33.4961 62.6699 33.3125 63.416 33.3086H64.5059V32.4238C64.5059 31.9707 64.3926 31.6465 64.166 31.4512C63.9434 31.252 63.6152 31.1523 63.1816 31.1523C62.7793 31.1523 62.4492 31.2695 62.1914 31.5039C61.9336 31.7383 61.8047 32.041 61.8047 32.4121L61.1543 32.4062C61.1543 31.8867 61.3496 31.4473 61.7402 31.0879C62.1309 30.7246 62.6211 30.543 63.2109 30.543C63.8477 30.543 64.3301 30.7031 64.6582 31.0234C64.9863 31.3438 65.1504 31.8105 65.1504 32.4238V35.5352C65.1504 36.1562 65.207 36.6211 65.3203 36.9297V37H64.6289ZM62.8418 36.4902C63.2246 36.4902 63.5625 36.3906 63.8555 36.1914C64.1523 35.9922 64.3691 35.7266 64.5059 35.3945V33.8535H63.4746C62.8809 33.8613 62.4336 33.9941 62.1328 34.252C61.832 34.5059 61.6816 34.8496 61.6816 35.2832C61.6816 36.0879 62.0684 36.4902 62.8418 36.4902ZM67.3535 37V31.2461H66.4805V30.6602H67.3535V29.8281C67.3613 29.1992 67.5059 28.7168 67.7871 28.3809C68.0723 28.0449 68.4648 27.877 68.9648 27.877C69.1914 27.877 69.4004 27.9102 69.5918 27.9766L69.5449 28.5742C69.373 28.5312 69.1973 28.5098 69.0176 28.5098C68.7012 28.5098 68.4531 28.6289 68.2734 28.8672C68.0977 29.1016 68.0098 29.4395 68.0098 29.8809V30.6602H69.252V31.2461H68.0098V37H67.3535ZM71.5137 29.043V30.6602H72.5977V31.2461H71.5137V35.459C71.5137 35.8066 71.5645 36.0664 71.666 36.2383C71.7715 36.4062 71.9453 36.4902 72.1875 36.4902C72.293 36.4902 72.4492 36.4707 72.6562 36.4316L72.6738 37.0176C72.5254 37.084 72.3125 37.1172 72.0352 37.1172C71.2734 37.1172 70.8828 36.5938 70.8633 35.5469V31.2461H69.8848V30.6602H70.8633V29.043H71.5137ZM80.8594 34.9023C80.8594 34.4258 80.7227 34.0508 80.4492 33.7773C80.1797 33.5039 79.6738 33.2422 78.9316 32.9922C78.1895 32.7422 77.6445 32.4629 77.2969 32.1543C76.8398 31.752 76.6113 31.2207 76.6113 30.5605C76.6113 29.9082 76.8359 29.377 77.2852 28.9668C77.7344 28.5566 78.3145 28.3516 79.0254 28.3516C79.752 28.3516 80.3457 28.5898 80.8066 29.0664C81.2676 29.543 81.498 30.1562 81.498 30.9062H80.8242C80.8242 30.332 80.6621 29.8691 80.3379 29.5176C80.0176 29.1621 79.5801 28.9844 79.0254 28.9844C78.4863 28.9844 78.0605 29.1309 77.748 29.4238C77.4395 29.7129 77.2852 30.0879 77.2852 30.5488C77.2852 30.9785 77.4316 31.3301 77.7246 31.6035C78.0176 31.877 78.4844 32.1211 79.125 32.3359C79.7656 32.5469 80.25 32.7676 80.5781 32.998C80.9062 33.2246 81.1484 33.4922 81.3047 33.8008C81.4609 34.1094 81.5391 34.4727 81.5391 34.8906C81.5391 35.5586 81.3125 36.0977 80.8594 36.5078C80.4102 36.9141 79.8145 37.1172 79.0723 37.1172C78.5723 37.1172 78.1152 37.0156 77.7012 36.8125C77.291 36.6055 76.9688 36.3105 76.7344 35.9277C76.5039 35.541 76.3887 35.0859 76.3887 34.5625H77.0566C77.0566 35.1641 77.2383 35.6367 77.6016 35.9805C77.9648 36.3242 78.4551 36.4961 79.0723 36.4961C79.6113 36.4961 80.043 36.3516 80.3672 36.0625C80.6953 35.7734 80.8594 35.3867 80.8594 34.9023ZM85.0137 37.1172C84.2676 37.1172 83.6836 36.873 83.2617 36.3848C82.8398 35.8965 82.625 35.2012 82.6172 34.2988V33.5254C82.6172 32.5957 82.8203 31.8672 83.2266 31.3398C83.6328 30.8086 84.1914 30.543 84.9023 30.543C85.5898 30.543 86.1133 30.7676 86.4727 31.2168C86.8359 31.666 87.0215 32.3535 87.0293 33.2793V33.8887H83.2617V34.2461C83.2617 34.9727 83.416 35.5332 83.7246 35.9277C84.0371 36.3223 84.4766 36.5195 85.043 36.5195C85.668 36.5195 86.1738 36.291 86.5605 35.834L86.9004 36.2676C86.4863 36.834 85.8574 37.1172 85.0137 37.1172ZM84.9023 31.1523C84.3906 31.1523 83.9961 31.334 83.7188 31.6973C83.4453 32.0566 83.2949 32.584 83.2676 33.2793H86.3789V33.1094C86.3477 31.8047 85.8555 31.1523 84.9023 31.1523ZM90.9023 31.2695C90.7461 31.2422 90.6094 31.2285 90.4922 31.2285C90.1328 31.2285 89.8301 31.3516 89.584 31.5977C89.3418 31.8438 89.1699 32.1855 89.0684 32.623V37H88.418V30.6602H89.0566L89.0684 31.6094C89.377 30.8984 89.8613 30.543 90.5215 30.543C90.6934 30.543 90.8242 30.5684 90.9141 30.6191L90.9023 31.2695ZM93.8379 35.9805L95.3965 30.6602H96.0645L94.0898 37H93.5742L91.5879 30.6602H92.2559L93.8379 35.9805ZM99.2637 37.1172C98.5176 37.1172 97.9336 36.873 97.5117 36.3848C97.0898 35.8965 96.875 35.2012 96.8672 34.2988V33.5254C96.8672 32.5957 97.0703 31.8672 97.4766 31.3398C97.8828 30.8086 98.4414 30.543 99.1523 30.543C99.8398 30.543 100.363 30.7676 100.723 31.2168C101.086 31.666 101.271 32.3535 101.279 33.2793V33.8887H97.5117V34.2461C97.5117 34.9727 97.666 35.5332 97.9746 35.9277C98.2871 36.3223 98.7266 36.5195 99.293 36.5195C99.918 36.5195 100.424 36.291 100.811 35.834L101.15 36.2676C100.736 36.834 100.107 37.1172 99.2637 37.1172ZM99.1523 31.1523C98.6406 31.1523 98.2461 31.334 97.9688 31.6973C97.6953 32.0566 97.5449 32.584 97.5176 33.2793H100.629V33.1094C100.598 31.8047 100.105 31.1523 99.1523 31.1523ZM105.152 31.2695C104.996 31.2422 104.859 31.2285 104.742 31.2285C104.383 31.2285 104.08 31.3516 103.834 31.5977C103.592 31.8438 103.42 32.1855 103.318 32.623V37H102.668V30.6602H103.307L103.318 31.6094C103.627 30.8984 104.111 30.543 104.771 30.543C104.943 30.543 105.074 30.5684 105.164 30.6191L105.152 31.2695ZM107.01 34.6211H106.406L106.371 28.4688H107.051L107.01 34.6211ZM106.307 36.584C106.307 36.4473 106.344 36.334 106.418 36.2441C106.496 36.1504 106.604 36.1035 106.74 36.1035C106.877 36.1035 106.982 36.1504 107.057 36.2441C107.135 36.334 107.174 36.4473 107.174 36.584C107.174 36.7168 107.135 36.8281 107.057 36.918C106.982 37.0039 106.877 37.0469 106.74 37.0469C106.604 37.0469 106.496 37.0039 106.418 36.918C106.344 36.8281 106.307 36.7168 106.307 36.584Z" fill="white"/>
</svg>
